<svg xmlns="http://www.w3.org/2000/svg"  >

<symbol id="icon-gps" viewBox="0 0 24 24" >
<path d="M12,8A4,4 0 0,1 16,12A4,4 0 0,1 12,16A4,4 0 0,1 8,12A4,4 0 0,1 12,8M3.05,13H1V11H3.05C3.5,6.83 6.83,3.5 11,3.05V1H13V3.05C17.17,3.5 20.5,6.83 20.95,11H23V13H20.95C20.5,17.17 17.17,20.5 13,20.95V23H11V20.95C6.83,20.5 3.5,17.17 3.05,13M12,5A7,7 0 0,0 5,12A7,7 0 0,0 12,19A7,7 0 0,0 19,12A7,7 0 0,0 12,5Z" />
</symbol>

<symbol id="icon-search" viewBox="0 0 16 16">
<path d="M11.742 10.344a6.5 6.5 0 1 0-1.397 1.398h-.001q.044.06.098.115l3.85 3.85a1 1 0 0 0 1.415-1.414l-3.85-3.85a1 1 0 0 0-.115-.1zM12 6.5a5.5 5.5 0 1 1-11 0 5.5 5.5 0 0 1 11 0"/>
</symbol>

<symbol id="icon-position" viewBox="0 0 297 297">
	<path d="M148.5,0C87.43,0,37.747,49.703,37.747,110.797c0,91.026,99.729,179.905,103.976,183.645
		c1.936,1.705,4.356,2.559,6.777,2.559c2.421,0,4.841-0.853,6.778-2.559c4.245-3.739,103.975-92.618,103.975-183.645
		C259.253,49.703,209.57,0,148.5,0z M148.5,272.689c-22.049-21.366-90.243-93.029-90.243-161.892
		c0-49.784,40.483-90.287,90.243-90.287s90.243,40.503,90.243,90.287C238.743,179.659,170.549,251.322,148.5,272.689z"/>
	<path d="M148.5,59.183c-28.273,0-51.274,23.154-51.274,51.614c0,28.461,23.001,51.614,51.274,51.614
		c28.273,0,51.274-23.153,51.274-51.614C199.774,82.337,176.773,59.183,148.5,59.183z M148.5,141.901
		c-16.964,0-30.765-13.953-30.765-31.104c0-17.15,13.801-31.104,30.765-31.104c16.964,0,30.765,13.953,30.765,31.104
		C179.265,127.948,165.464,141.901,148.5,141.901z"/>
</symbol>

<symbol id="uv" viewBox="0 0 32 32">
  <path fill-rule="evenodd" clip-rule="evenodd" d="M15 5V2H17V5H15ZM20.634 5.97381L22.134 3.37573L23.8661 4.37573L22.3661 6.97381L20.634 5.97381ZM16 23C19.866 23 23 19.866 23 16C23 12.134 19.866 9 16 9C12.134 9 9 12.134 9 16C9 19.866 12.134 23 16 23ZM16 25C20.9706 25 25 20.9706 25 16C25 11.0294 20.9706 7 16 7C11.0294 7 7 11.0294 7 16C7 20.9706 11.0294 25 16 25ZM27 15H30V17H27V15ZM27.6243 8.13397L25.0263 9.63397L26.0263 11.366L28.6243 9.86603L27.6243 8.13397ZM8.13397 4.37573L9.63397 6.97381L11.366 5.97381L9.86603 3.37573L8.13397 4.37573ZM5.97375 11.366L3.37567 9.86603L4.37567 8.13397L6.97375 9.63397L5.97375 11.366ZM15 27V30H17V27H15ZM5 15H2V17H5V15ZM3.37562 22.134L5.97369 20.634L6.97369 22.366L4.37562 23.866L3.37562 22.134ZM9.63404 25.0264L8.13404 27.6244L9.86609 28.6244L11.3661 26.0264L9.63404 25.0264ZM22.134 28.6244L20.634 26.0264L22.366 25.0264L23.866 27.6244L22.134 28.6244ZM25.0263 22.366L27.6244 23.866L28.6244 22.134L26.0263 20.634L25.0263 22.366Z" fill="url(#paint0_linear_9_803)"/>
  <defs>
  <linearGradient id="paint0_linear_9_803" x1="16" y1="2" x2="16" y2="30" gradientUnits="userSpaceOnUse">
  <stop stop-color="#fff"/>
  <stop offset="1" stop-color="#fff"/>
  </linearGradient>
  </defs>
</symbol>
<symbol id="clear" viewBox="0 0 32 32">
  <path fill-rule="evenodd" clip-rule="evenodd" d="M15 5V2H17V5H15ZM20.634 5.97381L22.134 3.37573L23.8661 4.37573L22.3661 6.97381L20.634 5.97381ZM16 23C19.866 23 23 19.866 23 16C23 12.134 19.866 9 16 9C12.134 9 9 12.134 9 16C9 19.866 12.134 23 16 23ZM16 25C20.9706 25 25 20.9706 25 16C25 11.0294 20.9706 7 16 7C11.0294 7 7 11.0294 7 16C7 20.9706 11.0294 25 16 25ZM27 15H30V17H27V15ZM27.6243 8.13397L25.0263 9.63397L26.0263 11.366L28.6243 9.86603L27.6243 8.13397ZM8.13397 4.37573L9.63397 6.97381L11.366 5.97381L9.86603 3.37573L8.13397 4.37573ZM5.97375 11.366L3.37567 9.86603L4.37567 8.13397L6.97375 9.63397L5.97375 11.366ZM15 27V30H17V27H15ZM5 15H2V17H5V15ZM3.37562 22.134L5.97369 20.634L6.97369 22.366L4.37562 23.866L3.37562 22.134ZM9.63404 25.0264L8.13404 27.6244L9.86609 28.6244L11.3661 26.0264L9.63404 25.0264ZM22.134 28.6244L20.634 26.0264L22.366 25.0264L23.866 27.6244L22.134 28.6244ZM25.0263 22.366L27.6244 23.866L28.6244 22.134L26.0263 20.634L25.0263 22.366Z" fill="url(#paint0_linear_9_803)"/>
  <defs>
  <linearGradient id="paint0_linear_9_803" x1="16" y1="2" x2="16" y2="30" gradientUnits="userSpaceOnUse">
  <stop stop-color="#EFC977"/>
  <stop offset="1" stop-color="#E07256"/>
  </linearGradient>
  </defs>
</symbol>

<symbol id="fog" viewBox="0 0 311 186">
<g filter="url(#filter0_f_7_10752)">
<path d="M88.8411 87.6389C88.8411 87.6389 225.93 88.9529 255.611 80.3329C285.292 71.7129 285.254 26.9749 255.611 15.9469C225.968 4.91893 215.837 44.3379 215.837 44.3379" stroke="#D0D0D0" stroke-width="20" stroke-linecap="round"/>
<path d="M122.863 134.656C122.863 134.656 223.471 125.566 267.824 134.656C312.177 143.746 298.054 169.823 277.034 171.015C256.014 172.207 236.617 158.395 236.617 158.395" stroke="#D0D0D0" stroke-width="20" stroke-linecap="round"/>
<path d="M34.1541 139.589H74.1541" stroke="#D0D0D0" stroke-width="20" stroke-linecap="round"/>
<path d="M14 31.5889C14 31.5889 44.519 34.1189 80.682 34.1189C116.845 34.1189 165.862 29.3729 165.862 29.3729" stroke="#D0D0D0" stroke-width="20" stroke-linecap="round"/>
</g>
<defs>
<filter id="filter0_f_7_10752" x="-0.000610352" y="0" width="310.98" height="185.088" filterUnits="userSpaceOnUse" color-interpolation-filters="sRGB">
<feFlood flood-opacity="0" result="BackgroundImageFix"/>
<feBlend mode="normal" in="SourceGraphic" in2="BackgroundImageFix" result="shape"/>
<feGaussianBlur stdDeviation="2" result="effect1_foregroundBlur_7_10752"/>
</filter>
</defs>
</symbol>

<symbol id="moderate" viewBox="0 0 32 32">
<path fill-rule="evenodd" clip-rule="evenodd" d="M2 13C2 17.3628 4.44938 21.1323 8 22.9107V20.6003C5.61019 19.0152 4 16.2291 4 13C4 7.96046 7.92179 4 12.6083 4C16.5839 4 20.0091 6.85004 20.9569 10.7911L20.9599 10.7899C21.0937 11.3367 21.1791 11.9037 21.2108 12.4855C21.8339 12.1732 22.5272 12 23.2493 12C25.8053 12 28 14.1696 28 17C28 18.7105 27.1984 20.1797 26 21.0745V23.3944C28.3573 22.3025 30 19.8501 30 17C30 13.134 26.9776 10 23.2493 10C23.1054 10 22.9626 10.0047 22.821 10.0139C21.5661 5.38976 17.469 2 12.6083 2C6.74949 2 2 6.92487 2 13ZM18.719 20.2026C18.9287 20.3237 19.2571 20.2708 19.4251 19.9798C19.5171 19.8204 19.6353 19.4894 19.721 18.9505C19.7551 18.7357 19.7808 18.5091 19.7995 18.2764C19.2154 18.6896 18.7729 19.1085 18.5588 19.4795C18.3908 19.7705 18.5093 20.0815 18.719 20.2026ZM19.7944 15.9217C20.8367 15.3377 21.7192 15.0042 21.7192 15.0042C21.7192 15.0042 21.8347 15.9432 21.8392 17.1264C21.8441 18.4226 21.7159 20.0116 21.157 20.9801C20.4541 22.198 18.915 22.6254 17.7192 21.9348C16.5235 21.2442 16.124 19.6971 16.8269 18.4792C17.4402 17.4164 18.7047 16.5323 19.7944 15.9217ZM12.1161 21.2203C12.3258 21.3414 12.6543 21.2885 12.8223 20.9975C12.9142 20.8381 13.0325 20.5071 13.1181 19.9682C13.1522 19.7534 13.178 19.5268 13.1966 19.2941C12.6126 19.7073 12.17 20.1262 11.9559 20.4972C11.788 20.7882 11.9064 21.0992 12.1161 21.2203ZM13.1916 16.9394C14.2339 16.3554 15.1164 16.0218 15.1164 16.0218C15.1164 16.0218 15.2318 16.9609 15.2363 18.1441C15.2413 19.4402 15.1131 21.0293 14.5541 21.9978C13.8513 23.2157 12.3121 23.6431 11.1164 22.9525C9.92065 22.2619 9.52113 20.7148 10.224 19.4969C10.8374 18.4341 12.1018 17.5499 13.1916 16.9394ZM21.6793 26.1129C21.5113 26.4039 21.1829 26.4567 20.9732 26.3356C20.7635 26.2145 20.645 25.9035 20.813 25.6125C21.0271 25.2415 21.4696 24.8227 22.0537 24.4095C22.0351 24.6421 22.0093 24.8687 21.9752 25.0836C21.8895 25.6225 21.7713 25.9535 21.6793 26.1129ZM23.9734 21.1372C23.9734 21.1372 23.0909 21.4708 22.0486 22.0548C20.9589 22.6653 19.6944 23.5495 19.0811 24.6122C18.3782 25.8301 18.7777 27.3772 19.9734 28.0678C21.1692 28.7584 22.7083 28.331 23.4112 27.1131C23.9701 26.1447 24.0983 24.5556 24.0934 23.2594C24.0889 22.0763 23.9734 21.1372 23.9734 21.1372ZM14.2549 27.9375C14.4645 28.0586 14.793 28.0058 14.961 27.7147C15.053 27.5554 15.1712 27.2244 15.2568 26.6855C15.291 26.4706 15.3167 26.244 15.3354 26.0113C14.7513 26.4246 14.3088 26.8434 14.0947 27.2144C13.9267 27.5054 14.0452 27.8164 14.2549 27.9375ZM15.3303 23.6566C16.3726 23.0727 17.2551 22.7391 17.2551 22.7391C17.2551 22.7391 17.3706 23.6781 17.3751 24.8613C17.38 26.1575 17.2518 27.7466 16.6929 28.715C15.99 29.9329 14.4509 30.3603 13.2551 29.6697C12.0594 28.9791 11.6599 27.432 12.3628 26.2141C12.9761 25.1514 14.2406 24.2672 15.3303 23.6566Z"/>
</symbol>

<symbol id="light" viewBox="0 0 32 32">
<path fill-rule="evenodd" clip-rule="evenodd" d="M24 23.9572C27.375 23.57 30 20.6028 30 17C30 13.134 26.9776 10 23.2493 10C23.1054 10 22.9626 10.0047 22.821 10.0139C21.5661 5.38976 17.469 2 12.6083 2C6.74949 2 2 6.92487 2 13C2 18.1419 5.40237 22.4598 10 23.665V21.5772C6.55261 20.4291 4 17.0657 4 13C4 7.96046 7.92179 4 12.6083 4C16.5839 4 20.0091 6.85004 20.9569 10.7911L20.9599 10.7899C21.0937 11.3367 21.1791 11.9037 21.2108 12.4855C21.8339 12.1732 22.5272 12 23.2493 12C25.8053 12 28 14.1696 28 17C28 19.5486 26.2205 21.5615 24 21.937V23.9572ZM13.5021 28.0021C13.7442 28.0021 14.0022 27.7921 14.0021 27.456C14.0021 27.272 13.9389 26.9263 13.7435 26.4168C13.6656 26.2136 13.5746 26.0045 13.4744 25.7938C13.1753 26.4437 13.0015 27.0277 13.0017 27.456C13.0018 27.7921 13.2599 28.0021 13.5021 28.0021ZM12.2923 23.7572C12.9029 22.7302 13.5002 22 13.5002 22C13.5002 22 14.0699 22.7554 14.6655 23.7778C15.318 24.8977 16.0018 26.3379 16.0021 27.456C16.0025 28.8622 14.8835 30.0021 13.5027 30.0021C12.1218 30.0021 11.0021 28.8622 11.0017 27.456C11.0013 26.229 11.654 24.8309 12.2923 23.7572ZM20.0021 24.456C20.0022 24.7921 19.7442 25.0021 19.5021 25.0021C19.2599 25.0021 19.0018 24.7921 19.0017 24.456C19.0015 24.0277 19.1753 23.4437 19.4744 22.7938C19.5746 23.0045 19.6656 23.2136 19.7435 23.4168C19.9389 23.9263 20.0021 24.272 20.0021 24.456ZM19.5002 19C19.5002 19 18.9029 19.7302 18.2923 20.7572C17.654 21.8309 17.0013 23.229 17.0017 24.456C17.0021 25.8622 18.1218 27.0021 19.5027 27.0021C20.8835 27.0021 22.0025 25.8622 22.0021 24.456C22.0018 23.3379 21.318 21.8977 20.6655 20.7778C20.0699 19.7554 19.5002 19 19.5002 19Z"/>
</symbol>

<symbol id="cloudy" viewBox="0 0 28 28">
<path fill-rule="evenodd" clip-rule="evenodd" d="M9.53175 6.05595C9.88574 6.01895 10.2449 6 10.6083 6C15.469 6 19.5661 9.38976 20.821 14.0139C20.9215 14.0073 21.0225 14.0031 21.1241 14.0012C21.0828 14.0005 21.0414 14.0001 21 14.0001L20.9664 14.0002L20.9664 14H22.5H22.5602V13.9995C24.4654 13.9673 26 12.4129 26 10.5C26 8.567 24.433 7 22.5 7C21.8509 7 21.2432 7.17666 20.7221 7.48451C20.7206 6.92577 20.6357 6.38663 20.4793 5.87885C19.7001 3.62147 17.5567 2 15.0345 2C12.4468 2 10.2578 3.70676 9.53175 6.05595ZM25.1766 15.3059C26.8861 16.5759 28 18.653 28 21C28 24.866 24.9776 28 21.2493 28C21.1658 28 21.0827 27.9984 21 27.9953V28H10.7671V27.9988C10.7143 27.9996 10.6613 28 10.6083 28C4.74949 28 0 23.0751 0 17C0 12.0943 3.09693 7.9387 7.37412 6.52057C7.96691 2.82406 11.1709 0 15.0345 0C18.3494 0 21.1787 2.07884 22.2899 5.00394C22.3596 5.00132 22.4296 5 22.5 5C25.5375 5 28 7.46243 28 10.5C28 12.5659 26.8609 14.3658 25.1766 15.3059ZM21 26H10.7671H10.652V25.9999L10.6083 26C5.92179 26 2 22.0395 2 17C2 11.9605 5.92179 8 10.6083 8C14.5839 8 18.0091 10.85 18.9569 14.7911L18.9599 14.7899C19.0937 15.3367 19.1791 15.9037 19.2108 16.4855C19.8339 16.1732 20.5272 16 21.2493 16C23.8053 16 26 18.1696 26 21C26 23.8105 23.8359 25.9695 21.3029 25.9996V26H21Z"/>
</symbol>

<symbol id="partly-cloudy" viewBox="0 0 32 32">
  <path fill-rule="evenodd" clip-rule="evenodd" d="M15 5V2H17V5H15ZM22.8619 21.8239C23.573 22.6875 24 23.7938 24 24.9999C24 27.7613 21.7614 29.9999 19 29.9999L18.9634 29.9998H11.5388V29.9997L11.5 29.9998C7.35787 29.9998 4 26.6419 4 22.4998C4 20.0402 5.18397 17.8571 7.01308 16.4894C7.0044 16.3274 7 16.1642 7 16C7 11.0294 11.0294 7 16 7C20.9706 7 25 11.0294 25 16C25 18.221 24.1955 20.2542 22.8619 21.8239ZM21.3082 20.5634C20.6177 20.2034 19.8326 19.9999 19 19.9999C18.1545 19.9999 17.358 20.2097 16.6598 20.5802C16.8825 21.1779 17.0042 21.8247 17.0042 22.5C17.0042 22.5891 17.0021 22.6776 16.9979 22.7657C17.5289 22.2895 18.2306 21.9999 19 21.9999C20.6569 21.9999 22 23.343 22 24.9999C22 26.6567 20.6569 27.9999 19 27.9999V27.9998H18.9716L18.9332 27.9992H11.5833C11.5556 27.9996 11.5278 27.9998 11.5 27.9998C8.46244 27.9998 6 25.5373 6 22.4998C6 19.4622 8.46244 16.9998 11.5 16.9998C13.8631 16.9998 15.878 18.49 16.6564 20.5819C17.2385 20.2725 17.889 20.0748 18.5794 20.0173C17.5548 17.0951 14.7721 14.9998 11.5 14.9998C10.6323 14.9998 9.79904 15.1471 9.02384 15.4181C9.31956 11.8244 12.3299 9 16 9C19.866 9 23 12.134 23 16C23 17.7434 22.3626 19.338 21.3082 20.5634ZM30 15H27V17H30V15ZM25.0263 9.63397L27.6243 8.13397L28.6243 9.86603L26.0263 11.366L25.0263 9.63397ZM22.134 3.37573L20.634 5.97381L22.3661 6.97381L23.8661 4.37573L22.134 3.37573ZM9.63397 6.97381L8.13397 4.37573L9.86603 3.37573L11.366 5.97381L9.63397 6.97381ZM3.37567 9.86603L5.97375 11.366L6.97375 9.63397L4.37567 8.13397L3.37567 9.86603ZM2 15H5V17H2V15ZM25.0263 22.366L27.6244 23.866L28.6244 22.134L26.0263 20.634L25.0263 22.366Z"/>
</symbol>


<symbol id="rainy" viewBox="0 0 32 32">
<path fill-rule="evenodd" clip-rule="evenodd" d="M23 20.3638C23 23.1811 20.1867 26 16 26C11.8133 26 9 23.1811 9 20.3638C9 17.4416 10.9006 13.8024 13.1345 10.6343C14.1442 9.20239 15.1575 7.95509 15.95 7.03368C16.7575 8.02709 17.8053 9.37938 18.8493 10.9055C19.9378 12.4967 20.9966 14.2398 21.7767 15.9363C22.5711 17.6638 23 19.1806 23 20.3638ZM7 20.3638C7 14.927 12.1312 8.37097 14.6448 5.48563C15.4601 4.5497 16 4 16 4C16 4 16.5172 4.57177 17.3037 5.52955C19.7979 8.56699 25 15.4867 25 20.3638C25 24.5812 20.9706 28 16 28C11.0294 28 7 24.5812 7 20.3638ZM11.4983 17H13.6499C13.2451 17.9239 13 18.8001 13 19.5455C13 20.6901 14.1196 22 16 22V24C13.2386 24 11 22.0057 11 19.5455C11 18.7246 11.191 17.86 11.4983 17Z"/>


</symbol>

<symbol id="snow" viewBox="0 0 32 32">
<path fill-rule="evenodd" clip-rule="evenodd" d="M13.9944 16.0012L8.88094 18.992L4.82766 17.1314L3.99561 18.9618L6.76174 20.2315L5.24022 21.1214L6.2305 22.859L7.75177 21.9693L7.45421 25.0305L9.43493 25.2156L9.87098 20.7298L14.9868 17.7376V23.7528L11.3669 26.3801L12.5417 27.9988L14.9868 26.2241V28H16.9868V26.224L19.4321 27.9988L20.6069 26.3801L16.9868 23.7527V17.7514L22.1141 20.7503L22.5502 25.2367L24.531 25.0515L24.2333 21.9898L25.7549 22.8798L26.7452 21.1422L25.2239 20.2523L27.9896 18.9828L27.1575 17.1525L23.1047 19.0128L17.9556 16.0012L23.0888 12.9988L27.1684 14.8715L28.0005 13.0412L25.208 11.7593L26.7472 10.859L25.757 9.12142L24.2471 10.0045L24.5419 6.97248L22.5611 6.78729L22.1279 11.244L16.9868 14.251V8.26755L20.6301 5.62327L19.4554 4.00466L16.9868 5.79629V4H14.9868V5.76246L12.565 4.00466L11.3902 5.62327L14.9868 8.23371V14.2648L9.88669 11.2818L9.44778 6.7665L7.46706 6.95168L7.76749 10.0423L6.2285 9.14217L5.23821 10.8798L6.74798 11.7628L4.00846 13.0204L4.84051 14.8507L8.86719 13.0023L13.9944 16.0012Z"/>
</symbol>

<symbol id="thunder-rain" viewBox="0 0 32 32">
  <path fill-rule="evenodd" clip-rule="evenodd" d="M2 13C2 17.7615 4.91752 21.8163 9 23.3473V21.1706C6.0703 19.7535 4 16.6616 4 13C4 7.96046 7.92179 4 12.6083 4C16.5839 4 20.0091 6.85004 20.9569 10.7911L20.9599 10.7899C21.0937 11.3367 21.1791 11.9037 21.2108 12.4855C21.8339 12.1732 22.5272 12 23.2493 12C25.8053 12 28 14.1696 28 17C28 19.8105 25.8359 21.9695 23.3029 21.9996V22H23V23.9953C23.0827 23.9984 23.1658 24 23.2493 24C26.9776 24 30 20.866 30 17C30 13.134 26.9776 10 23.2493 10C23.1054 10 22.9626 10.0047 22.821 10.0139C21.5661 5.38976 17.469 2 12.6083 2C6.74949 2 2 6.92487 2 13ZM17.168 16.4453L13.168 22.4453L12.1315 24H14H17.0442L13.856 28.4145L15.4773 29.5855L19.8107 23.5855L20.9558 22H19H15.8685L18.8321 17.5547L17.168 16.4453ZM20.3609 26.9244C20.1533 27.4108 20.0009 27.9308 20.001 28.4091C20.0013 29.2877 20.6731 30 21.5015 30C22.33 30 23.0013 29.2877 23.001 28.4091C23.0009 27.9619 22.8327 27.4321 22.609 26.9252C22.1643 25.9175 21.5 25 21.5 25C21.5 25 20.8044 25.8856 20.3609 26.9244ZM9.00105 28.4091C9.0009 27.9308 9.15328 27.4108 9.36092 26.9244C9.80441 25.8856 10.5 25 10.5 25C10.5 25 11.1643 25.9175 11.609 26.9252C11.8327 27.4321 12.0009 27.9619 12.001 28.4091C12.0013 29.2877 11.33 30 10.5015 30C9.67311 30 9.00132 29.2877 9.00105 28.4091Z"/>

</symbol>

<symbol id="thunder" viewBox="0 0 32 32">
  <path fill-rule="evenodd" clip-rule="evenodd" d="M2 13C2 18.1419 5.40237 22.4598 10 23.665V21.5772C6.55261 20.4291 4 17.0657 4 13C4 7.96046 7.92179 4 12.6083 4C16.5839 4 20.0091 6.85004 20.9569 10.7911L20.9599 10.7899C21.0937 11.3367 21.1791 11.9037 21.2108 12.4855C21.8339 12.1732 22.5272 12 23.2493 12C25.8053 12 28 14.1696 28 17C28 19.8105 25.8359 21.9695 23.3029 21.9996V22H23V23.9953C23.0827 23.9984 23.1658 24 23.2493 24C26.9776 24 30 20.866 30 17C30 13.134 26.9776 10 23.2493 10C23.1054 10 22.9626 10.0047 22.821 10.0139C21.5661 5.38976 17.469 2 12.6083 2C6.74949 2 2 6.92487 2 13ZM17.168 16.4453L13.168 22.4453L12.1315 24H14H17.0442L13.856 28.4145L15.4773 29.5855L19.8107 23.5855L20.9558 22H19H15.8685L18.8321 17.5547L17.168 16.4453Z"/>
</symbol>

<symbol id="humidity" viewBox="0 0 351 186">
<g filter="url(#filter0_f_7_10765)">
<path d="M128.687 87.6389C128.687 87.6389 265.776 88.9529 295.457 80.3329C325.138 71.7129 325.1 26.9749 295.457 15.9469C265.814 4.91893 255.683 44.3379 255.683 44.3379" stroke="#D0D0D0" stroke-width="20" stroke-linecap="round"/>
<path d="M162.709 134.656C162.709 134.656 263.317 125.566 307.67 134.656C352.023 143.746 337.9 169.823 316.88 171.015C295.86 172.207 276.463 158.395 276.463 158.395" stroke="#D0D0D0" stroke-width="20" stroke-linecap="round"/>
<path d="M53.846 31.5889C53.846 31.5889 84.365 34.1189 120.528 34.1189C156.691 34.1189 205.708 29.3729 205.708 29.3729" stroke="#D0D0D0" stroke-width="20" stroke-linecap="round"/>
<path d="M21.818 128.089C23.418 128.107 39.636 153.43 39.636 163.271C39.636 167.997 37.7588 172.529 34.4172 175.87C31.0757 179.212 26.5436 181.089 21.818 181.089C17.0924 181.089 12.5603 179.212 9.21877 175.87C5.87725 172.529 4 167.997 4 163.271C4 153.431 20.219 128.071 21.818 128.089Z" fill="#42A0F0"/>
<path d="M8.23325 169.93C10.0137 170.475 12.2764 168.236 13.2872 164.93C14.298 161.623 13.6741 158.502 11.8937 157.958C10.1133 157.413 7.85061 159.652 6.8398 162.958C5.82898 166.265 6.45285 169.386 8.23325 169.93Z" fill="white"/>
<path d="M107.818 128.089C109.418 128.107 125.636 153.43 125.636 163.271C125.636 167.997 123.759 172.529 120.417 175.87C117.076 179.212 112.544 181.089 107.818 181.089C103.092 181.089 98.5603 179.212 95.2188 175.87C91.8772 172.529 90 167.997 90 163.271C90 153.431 106.219 128.071 107.818 128.089Z" fill="#42A0F0"/>
<path d="M94.2333 169.93C96.0137 170.475 98.2764 168.236 99.2872 164.93C100.298 161.623 99.6741 158.502 97.8937 157.958C96.1133 157.413 93.8506 159.652 92.8398 162.958C91.829 166.265 92.4529 169.386 94.2333 169.93Z" fill="white"/>
<path d="M63.818 63.0889C65.418 63.1069 81.636 88.4299 81.636 98.2709C81.636 102.997 79.7588 107.529 76.4172 110.87C73.0757 114.212 68.5436 116.089 63.818 116.089C59.0924 116.089 54.5603 114.212 51.2188 110.87C47.8772 107.529 46 102.997 46 98.2709C46 88.4309 62.219 63.0709 63.818 63.0889Z" fill="#42A0F0"/>
<path d="M50.2333 104.93C52.0137 105.475 54.2764 103.236 55.2872 99.9296C56.298 96.6233 55.6741 93.5018 53.8937 92.9575C52.1133 92.4132 49.8506 94.6522 48.8398 97.9584C47.829 101.265 48.4529 104.386 50.2333 104.93Z" fill="white"/>
</g>
<defs>
<filter id="filter0_f_7_10765" x="0" y="0" width="350.825" height="185.089" filterUnits="userSpaceOnUse" color-interpolation-filters="sRGB">
<feFlood flood-opacity="0" result="BackgroundImageFix"/>
<feBlend mode="normal" in="SourceGraphic" in2="BackgroundImageFix" result="shape"/>
<feGaussianBlur stdDeviation="2" result="effect1_foregroundBlur_7_10765"/>
</filter>
</defs>
</symbol>

<symbol id="visibility" fill="#ddd" viewBox="0 0 16 16">

    <path d="M8.5 3a5 5 0 0 1 4.905 4.027A3 3 0 0 1 13 13h-1.5a.5.5 0 0 0 0-1H1.05a3.5 3.5 0 0 1-.713-1H9.5a.5.5 0 0 0 0-1H.035a3.5 3.5 0 0 1 0-1H7.5a.5.5 0 0 0 0-1H.337a3.5 3.5 0 0 1 3.57-1.977A5 5 0 0 1 8.5 3"/>

</symbol>

</svg>
